<svg width="19" height="19" viewBox="0 0 19 19" fill="none" xmlns="http://www.w3.org/2000/svg">
<path d="M17.0275 0H0.978079C0.444581 0 0 0.46798 0 1.02956V17.9236C0 18.4852 0.444581 18.9532 0.978079 18.9532H9.60296V11.6527H7.24667V8.75123H9.60296V6.64532C9.60296 4.21182 11.0256 2.85468 13.1151 2.85468C13.8265 2.85468 14.5378 2.90148 15.2491 2.99507V5.56897H13.782C12.6706 5.56897 12.4483 6.13054 12.4483 6.97291V8.79803H15.1602L14.8046 11.6527H12.4483V19H17.0275C17.561 19 18.0055 18.532 18.0055 17.9704V1.02956C18.05 0.46798 17.6054 0 17.0275 0Z" fill="white"/>
</svg>
