<svg width="19" height="19" viewBox="0 0 19 19" fill="none" xmlns="http://www.w3.org/2000/svg">
<path d="M9.5 1.73153C12.0271 1.73153 12.3547 1.73153 13.3374 1.77832C14.2734 1.82512 14.7882 1.96552 15.1158 2.10591C15.5369 2.2931 15.8645 2.4803 16.1921 2.80788C16.5197 3.13547 16.7069 3.46305 16.8941 3.88424C17.0345 4.21182 17.1749 4.7266 17.2217 5.66256C17.2685 6.64532 17.2685 6.97291 17.2685 9.5C17.2685 12.0271 17.2685 12.3547 17.2217 13.3374C17.1749 14.2734 17.0345 14.7882 16.8941 15.1158C16.7069 15.5369 16.5197 15.8645 16.1921 16.1921C15.8645 16.5197 15.5369 16.7069 15.1158 16.8941C14.7882 17.0345 14.2734 17.1749 13.3374 17.2217C12.3547 17.2685 12.0271 17.2685 9.5 17.2685C6.97291 17.2685 6.64532 17.2685 5.66256 17.2217C4.7266 17.1749 4.21182 17.0345 3.88424 16.8941C3.46305 16.7069 3.13547 16.5197 2.80788 16.1921C2.4803 15.8645 2.2931 15.5369 2.10591 15.1158C1.96552 14.7882 1.82512 14.2734 1.77832 13.3374C1.73153 12.3547 1.73153 12.0271 1.73153 9.5C1.73153 6.97291 1.73153 6.64532 1.77832 5.66256C1.82512 4.7266 1.96552 4.21182 2.10591 3.88424C2.24631 3.46305 2.4803 3.13547 2.80788 2.80788C3.13547 2.4803 3.46305 2.2931 3.88424 2.10591C4.21182 1.96552 4.7266 1.82512 5.66256 1.77832C6.64532 1.73153 6.97291 1.73153 9.5 1.73153ZM9.5 0C6.92611 0 6.59852 0 5.56896 0.046798C4.58621 0.0935961 3.88424 0.280788 3.27586 0.514778C2.66749 0.748768 2.10591 1.07635 1.59113 1.59113C1.07635 2.10591 0.748768 2.66749 0.514778 3.27586C0.280788 3.88424 0.140394 4.58621 0.0935961 5.56896C0 6.59852 0 6.92611 0 9.5C0 12.0739 0 12.4015 0.046798 13.431C0.0935961 14.4606 0.23399 15.1158 0.46798 15.7241C0.70197 16.3325 1.02956 16.8941 1.54433 17.4089C2.10591 17.9236 2.66749 18.2512 3.27586 18.4852C3.88424 18.7192 4.58621 18.8596 5.56896 18.9064C6.59852 18.9532 6.92611 18.9532 9.5 18.9532C12.0739 18.9532 12.4015 18.9532 13.431 18.9064C14.4606 18.8596 15.1158 18.7192 15.7241 18.4852C16.3325 18.2512 16.8941 17.9236 17.4089 17.4089C17.9236 16.8941 18.2512 16.3325 18.4852 15.7241C18.7192 15.1158 18.8596 14.4138 18.9064 13.431C18.9532 12.4015 18.9532 12.0739 18.9532 9.5C18.9532 6.92611 18.9532 6.59852 18.9064 5.56896C18.9064 4.58621 18.7192 3.88424 18.4852 3.27586C18.2512 2.66749 17.9236 2.10591 17.4089 1.59113C16.8941 1.07635 16.3325 0.748768 15.7241 0.514778C15.1158 0.280788 14.4138 0.140394 13.431 0.0935961C12.4015 0 12.0739 0 9.5 0Z" fill="white"/>
<path d="M9.49993 4.633C6.78564 4.633 4.63293 6.8325 4.63293 9.49999C4.63293 12.2143 6.83244 14.367 9.49993 14.367C12.1674 14.367 14.3669 12.1675 14.3669 9.49999C14.3669 6.78571 12.1674 4.633 9.49993 4.633ZM9.49993 12.6823C7.7684 12.6823 6.31766 11.2783 6.31766 9.49999C6.31766 7.76846 7.7216 6.31773 9.49993 6.31773C11.2783 6.31773 12.6822 7.72167 12.6822 9.49999C12.6822 11.2315 11.2315 12.6823 9.49993 12.6823Z" fill="white"/>
<path d="M14.5542 5.56897C15.1745 5.56897 15.6773 5.06612 15.6773 4.44581C15.6773 3.82551 15.1745 3.32266 14.5542 3.32266C13.9339 3.32266 13.431 3.82551 13.431 4.44581C13.431 5.06612 13.9339 5.56897 14.5542 5.56897Z" fill="white"/>
</svg>
