<svg xmlns="http://www.w3.org/2000/svg" viewBox="0 0 1934.61 2500.04"><defs><style>.cls-1{fill:#fff;}</style></defs><g id="Warstwa_2" data-name="Warstwa 2"><g id="Warstwa_1-2" data-name="Warstwa 1"><path class="cls-1" d="M0,897.32Q0,739.85,66.24,584.88t190-287.44q123.72-132.34,324.93-215T1027.29,0q397.43,0,652.37,245t254.95,577.39q0,427.41-216.2,706.1t-558.64,278.7q-112.49,0-211.21-52.49T809.84,1627.17l-100,394.93a765.83,765.83,0,0,1-32.5,96.23c-13.24,32.49-28,63.73-43.74,93.73s-31.74,58.24-47.49,85-31.74,51.74-47.49,75-29.49,43-41.24,58.73-22.49,29.5-32.49,41.25l-15,20c-5,6.75-11.75,9.25-20,7.5s-13.24-6.75-15-15c0-1.75-1.25-13.24-3.75-35s-5-44.49-7.5-68.74-5-55.49-7.5-93.73-3.25-75.48-2.5-111.23,3.25-75.48,7.5-118.72,10.5-83.23,18.75-120q27.36-117.34,185-782.34c-13.25-26.75-24.25-58.74-32.49-96.23s-12.5-68-12.5-91.23l-2.5-37.5q0-160.08,81.23-266.19T834.83,557.39c61.74,0,109.48,20.49,143.72,61.24s51.24,92,51.24,153.72c0,38.24-7,85.48-21.24,141.22s-33,120-56.24,192.46-40,131.22-50,176.21c-16.75,75-2,140,43.74,195s107,82.49,183.71,82.49q197.6,0,326.19-223.71t128.72-541.14q0-242.58-157.47-396.17T987.3,245q-314.94,0-511.15,202.46T279.94,932.31q0,167.6,95,282.45c21.74,25,28.24,51.74,20,80-3.25,8.25-8.25,27.5-15,57.49s-11.74,49.24-15,57.49c-3.25,18.24-11.75,30.49-25,36.24s-28.24,5.5-45-1.25q-147.34-60-221.2-206.21T0,897.32Z"/></g></g></svg>